<?xml version="1.0" encoding="UTF-8"?>
<svg xmlns="http://www.w3.org/2000/svg" xmlns:xlink="http://www.w3.org/1999/xlink" viewBox="0 0 100 100" width="100px" height="100px">
<g id="surface71602196">
<path style=" stroke:none;fill-rule:nonzero;fill:rgb(47.058824%,63.529414%,82.352942%);fill-opacity:1;" d="M 69 82 L 31 82 C 23.820312 82 18 76.179688 18 69 L 18 31 C 18 23.820312 23.820312 18 31 18 L 69 18 C 76.179688 18 82 23.820312 82 31 L 82 69 C 82 76.179688 76.179688 82 69 82 Z M 69 82 "/>
<path style=" stroke:none;fill-rule:nonzero;fill:rgb(20.392157%,59.607846%,85.882354%);fill-opacity:1;" d="M 66.5 78 L 33.5 78 C 27.148438 78 22 72.851562 22 66.5 L 22 33.5 C 22 27.148438 27.148438 22 33.5 22 L 66.5 22 C 72.851562 22 78 27.148438 78 33.5 L 78 66.5 C 78 72.851562 72.851562 78 66.5 78 Z M 66.5 78 "/>
<path style=" stroke:none;fill-rule:nonzero;fill:rgb(0%,0%,0%);fill-opacity:1;" d="M 69 83 L 31 83 C 23.28125 83 17 76.71875 17 69 L 17 31 C 17 23.28125 23.28125 17 31 17 L 69 17 C 76.71875 17 83 23.28125 83 31 L 83 69 C 83 76.71875 76.71875 83 69 83 Z M 31 19 C 24.382812 19 19 24.382812 19 31 L 19 69 C 19 75.617188 24.382812 81 31 81 L 69 81 C 75.617188 81 81 75.617188 81 69 L 81 31 C 81 24.382812 75.617188 19 69 19 Z M 31 19 "/>
<path style=" stroke:none;fill-rule:nonzero;fill:rgb(0%,0%,0%);fill-opacity:1;" d="M 66.5 78 L 33.5 78 C 27.160156 78 22 72.839844 22 66.5 L 22 33.5 C 22 27.160156 27.160156 22 33.5 22 L 66.5 22 C 66.851562 22 67.199219 22.019531 67.546875 22.054688 C 67.820312 22.078125 68.023438 22.320312 67.996094 22.597656 C 67.972656 22.871094 67.726562 23.074219 67.453125 23.050781 C 67.140625 23.019531 66.824219 23 66.5 23 L 33.5 23 C 27.710938 23 23 27.710938 23 33.5 L 23 66.5 C 23 72.289062 27.710938 77 33.5 77 L 66.5 77 C 72.289062 77 77 72.289062 77 66.5 L 77 49.5 C 77 49.222656 77.222656 49 77.5 49 C 77.777344 49 78 49.222656 78 49.5 L 78 66.5 C 78 72.839844 72.839844 78 66.5 78 Z M 66.5 78 "/>
<path style=" stroke:none;fill-rule:nonzero;fill:rgb(0%,0%,0%);fill-opacity:1;" d="M 77.5 40 C 77.222656 40 77 39.777344 77 39.5 L 77 37.5 C 77 37.222656 77.222656 37 77.5 37 C 77.777344 37 78 37.222656 78 37.5 L 78 39.5 C 78 39.777344 77.777344 40 77.5 40 Z M 77.5 40 "/>
<path style=" stroke:none;fill-rule:nonzero;fill:rgb(0%,0%,0%);fill-opacity:1;" d="M 77.5 47 C 77.222656 47 77 46.777344 77 46.5 L 77 42.5 C 77 42.222656 77.222656 42 77.5 42 C 77.777344 42 78 42.222656 78 42.5 L 78 46.5 C 78 46.777344 77.777344 47 77.5 47 Z M 77.5 47 "/>
<path style=" stroke:none;fill-rule:nonzero;fill:rgb(100%,100%,100%);fill-opacity:1;" d="M 56.5 44 C 56.5 50.902344 50.902344 56.5 44 56.5 C 37.097656 56.5 31.5 50.902344 31.5 44 C 31.5 37.097656 37.097656 31.5 44 31.5 C 50.902344 31.5 56.5 37.097656 56.5 44 Z M 56.5 44 "/>
<path style=" stroke:none;fill-rule:nonzero;fill:rgb(47.058824%,63.529414%,82.352942%);fill-opacity:1;" d="M 44 57 C 36.832031 57 31 51.167969 31 44 C 31 36.832031 36.832031 31 44 31 C 51.167969 31 57 36.832031 57 44 C 57 51.167969 51.167969 57 44 57 Z M 44 32 C 37.382812 32 32 37.382812 32 44 C 32 50.617188 37.382812 56 44 56 C 50.617188 56 56 50.617188 56 44 C 56 37.382812 50.617188 32 44 32 Z M 44 32 "/>
<path style=" stroke:none;fill-rule:nonzero;fill:rgb(0%,0%,0%);fill-opacity:1;" d="M 44 57 C 36.832031 57 31 51.167969 31 44 C 31 36.832031 36.832031 31 44 31 C 51.167969 31 57 36.832031 57 44 C 57 51.167969 51.167969 57 44 57 Z M 44 32 C 37.382812 32 32 37.382812 32 44 C 32 50.617188 37.382812 56 44 56 C 50.617188 56 56 50.617188 56 44 C 56 37.382812 50.617188 32 44 32 Z M 44 32 "/>
<path style=" stroke:none;fill-rule:nonzero;fill:rgb(78.039217%,87.450981%,94.509804%);fill-opacity:1;" d="M 53.5 44 C 53.5 49.246094 49.246094 53.5 44 53.5 C 38.753906 53.5 34.5 49.246094 34.5 44 C 34.5 38.753906 38.753906 34.5 44 34.5 C 49.246094 34.5 53.5 38.753906 53.5 44 Z M 53.5 44 "/>
<path style=" stroke:none;fill-rule:nonzero;fill:rgb(0%,0%,0%);fill-opacity:1;" d="M 44 54 C 38.484375 54 34 49.515625 34 44 C 34 38.484375 38.484375 34 44 34 C 49.515625 34 54 38.484375 54 44 C 54 49.515625 49.515625 54 44 54 Z M 44 35 C 39.039062 35 35 39.035156 35 44 C 35 48.964844 39.039062 53 44 53 C 48.960938 53 53 48.964844 53 44 C 53 39.035156 48.960938 35 44 35 Z M 44 35 "/>
<path style=" stroke:none;fill-rule:nonzero;fill:rgb(0%,0%,0%);fill-opacity:1;" d="M 51.792969 53.207031 L 53.207031 51.792969 L 57.207031 55.792969 L 55.792969 57.207031 Z M 51.792969 53.207031 "/>
<path style=" stroke:none;fill-rule:nonzero;fill:rgb(100%,100%,100%);fill-opacity:1;" d="M 66 68.5 C 65.359375 68.5 64.71875 68.257812 64.230469 67.769531 L 55.230469 58.769531 C 54.253906 57.789062 54.253906 56.210938 55.230469 55.234375 C 56.207031 54.257812 57.792969 54.257812 58.765625 55.234375 L 67.765625 64.234375 C 68.742188 65.210938 68.742188 66.792969 67.765625 67.769531 C 67.28125 68.257812 66.640625 68.5 66 68.5 Z M 66 68.5 "/>
<path style=" stroke:none;fill-rule:nonzero;fill:rgb(0%,0%,0%);fill-opacity:1;" d="M 66 69 C 65.199219 69 64.445312 68.6875 63.878906 68.121094 L 54.878906 59.121094 C 53.710938 57.949219 53.710938 56.050781 54.878906 54.878906 C 56.011719 53.746094 57.988281 53.746094 59.121094 54.878906 L 68.121094 63.878906 C 69.289062 65.050781 69.289062 66.949219 68.121094 68.121094 C 67.554688 68.6875 66.800781 69 66 69 Z M 57 55 C 56.464844 55 55.964844 55.207031 55.585938 55.585938 C 54.804688 56.363281 54.804688 57.636719 55.585938 58.414062 L 64.585938 67.414062 C 65.339844 68.171875 66.660156 68.171875 67.414062 67.414062 C 68.195312 66.636719 68.195312 65.363281 67.414062 64.585938 L 58.414062 55.585938 C 58.035156 55.207031 57.535156 55 57 55 Z M 57 55 "/>
<path style=" stroke:none;fill-rule:nonzero;fill:rgb(0%,0%,0%);fill-opacity:1;" d="M 55.144531 59.148438 L 59.144531 55.144531 L 59.851562 55.851562 L 55.851562 59.855469 Z M 55.144531 59.148438 "/>
</g>
</svg>
