<?xml version="1.0" encoding="UTF-8"?>
<svg xmlns="http://www.w3.org/2000/svg" xmlns:xlink="http://www.w3.org/1999/xlink" viewBox="0 0 100 100" width="100px" height="100px">
<g id="surface52337153">
<path style=" stroke:none;fill-rule:nonzero;fill:rgb(0%,47.058824%,84.313726%);fill-opacity:1;" d="M 85 50 C 85 69.328125 69.328125 85 50 85 C 30.671875 85 15 69.328125 15 50 C 15 30.671875 30.671875 15 50 15 C 69.328125 15 85 30.671875 85 50 Z M 85 50 "/>
<path style=" stroke:none;fill-rule:nonzero;fill:rgb(0%,47.058824%,84.313726%);fill-opacity:1;" d="M 50 86 C 30.148438 86 14 69.851562 14 50 C 14 30.148438 30.148438 14 50 14 C 69.851562 14 86 30.148438 86 50 C 86 69.851562 69.851562 86 50 86 Z M 50 16 C 31.253906 16 16 31.253906 16 50 C 16 68.746094 31.253906 84 50 84 C 68.746094 84 84 68.746094 84 50 C 84 31.253906 68.746094 16 50 16 Z M 50 16 "/>
<path style=" stroke:none;fill-rule:nonzero;fill:rgb(0%,47.058824%,84.313726%);fill-opacity:1;" d="M 65.5 24.226562 C 65.414062 24.226562 65.324219 24.203125 65.246094 24.15625 C 64.609375 23.78125 63.945312 23.425781 63.277344 23.09375 C 63.03125 22.96875 62.929688 22.667969 63.050781 22.421875 C 63.175781 22.171875 63.476562 22.074219 63.722656 22.195312 C 64.410156 22.539062 65.09375 22.910156 65.753906 23.296875 C 65.992188 23.4375 66.070312 23.742188 65.929688 23.980469 C 65.839844 24.140625 65.671875 24.226562 65.5 24.226562 Z M 65.5 24.226562 "/>
<path style=" stroke:none;fill-rule:nonzero;fill:rgb(0%,47.058824%,84.313726%);fill-opacity:1;" d="M 68.5 26.25 C 68.394531 26.25 68.285156 26.214844 68.195312 26.144531 C 67.871094 25.898438 67.546875 25.660156 67.214844 25.425781 C 66.984375 25.265625 66.933594 24.953125 67.089844 24.730469 C 67.25 24.503906 67.5625 24.449219 67.785156 24.605469 C 68.132812 24.847656 68.472656 25.097656 68.804688 25.351562 C 69.023438 25.519531 69.066406 25.832031 68.898438 26.050781 C 68.800781 26.183594 68.648438 26.25 68.5 26.25 Z M 68.5 26.25 "/>
<path style=" stroke:none;fill-rule:nonzero;fill:rgb(0%,47.058824%,84.313726%);fill-opacity:1;" d="M 50 81 C 32.90625 81 19 67.09375 19 50 C 19 32.90625 32.90625 19 50 19 C 53.664062 19 57.257812 19.636719 60.671875 20.886719 C 60.933594 20.984375 61.066406 21.269531 60.96875 21.527344 C 60.875 21.789062 60.585938 21.921875 60.328125 21.828125 C 57.023438 20.613281 53.546875 20 50 20 C 33.457031 20 20 33.457031 20 50 C 20 66.542969 33.457031 80 50 80 C 66.542969 80 80 66.542969 80 50 C 80 41.5625 76.414062 33.464844 70.164062 27.785156 C 69.960938 27.601562 69.945312 27.285156 70.128906 27.082031 C 70.316406 26.878906 70.632812 26.859375 70.835938 27.046875 C 77.296875 32.914062 81 41.277344 81 50 C 81 67.09375 67.09375 81 50 81 Z M 50 81 "/>
<path style=" stroke:none;fill-rule:nonzero;fill:rgb(99.607843%,99.215686%,93.725491%);fill-opacity:1;" d="M 53.5 37.5 L 58.5 37.5 L 58.5 30.5 C 58.5 30.5 53.25 30.5 51.5 30.5 C 47.632812 30.5 44.5 33.632812 44.5 37.5 L 44.5 43.5 L 40.5 43.5 L 40.5 50.5 L 44.5 50.5 L 44.5 69.5 L 51.5 69.5 L 51.5 50.5 L 57.5 50.5 L 58.5 43.5 L 51.5 43.5 L 51.5 39.5 C 51.5 38.394531 52.394531 37.5 53.5 37.5 Z M 53.5 37.5 "/>
<path style=" stroke:none;fill-rule:nonzero;fill:rgb(0%,47.058824%,84.313726%);fill-opacity:1;" d="M 51.5 70 L 44.5 70 C 44.222656 70 44 69.777344 44 69.5 L 44 51 L 40.5 51 C 40.222656 51 40 50.777344 40 50.5 L 40 43.5 C 40 43.222656 40.222656 43 40.5 43 L 44 43 L 44 37.5 C 44 33.363281 47.363281 30 51.5 30 L 58.5 30 C 58.777344 30 59 30.222656 59 30.5 L 59 37.5 C 59 37.777344 58.777344 38 58.5 38 L 53.5 38 C 52.671875 38 52 38.671875 52 39.5 L 52 43 L 58.5 43 C 58.644531 43 58.78125 43.0625 58.878906 43.171875 C 58.972656 43.28125 59.015625 43.425781 58.996094 43.570312 L 57.996094 50.570312 C 57.960938 50.816406 57.75 51 57.5 51 L 52 51 L 52 69.5 C 52 69.777344 51.777344 70 51.5 70 Z M 45 69 L 51 69 L 51 50.5 C 51 50.222656 51.222656 50 51.5 50 L 57.066406 50 L 57.921875 44 L 51.5 44 C 51.222656 44 51 43.777344 51 43.5 L 51 39.5 C 51 38.121094 52.121094 37 53.5 37 L 58 37 L 58 31 L 51.5 31 C 47.914062 31 45 33.914062 45 37.5 L 45 43.5 C 45 43.777344 44.777344 44 44.5 44 L 41 44 L 41 50 L 44.5 50 C 44.777344 50 45 50.222656 45 50.5 Z M 45 69 "/>
</g>
</svg>
